<?xml version="1.0" standalone="no"?>
<!DOCTYPE svg PUBLIC "-//W3C//DTD SVG 1.1//EN" "http://www.w3.org/Graphics/SVG/1.1/DTD/svg11.dtd" >
<svg>
<metadata>
Created by FontForge 20090622 at Wed Jan  3 06:31:27 2018
 By deploy user
Copyright (c) 1985, 1987, 1988, 1989, 1991 Adobe Systems Incorporated.  All Rights Reserved.Optima is a trademark of Linotype-Hell AG and/or its subsidiaries.
</metadata>
<defs>
<font id="IDGDKF+Optima-Bold" horiz-adv-x="500" >
  <font-face 
    font-family="Optima"
    font-weight="700"
    font-stretch="normal"
    units-per-em="1000"
    panose-1="2 0 8 3 0 0 0 0 0 0"
    ascent="800"
    descent="-200"
    x-height="479"
    cap-height="685"
    bbox="11 -271 854 913"
    underline-thickness="50"
    underline-position="-100"
    unicode-range="U+0020-U+FFFD"
  />
<missing-glyph horiz-adv-x="278" 
 />
    <glyph glyph-name=".notdef" unicode="&#xfffd;" horiz-adv-x="278" 
 />
    <glyph glyph-name=".null" horiz-adv-x="0" 
 />
    <glyph glyph-name="nonmarkingreturn" horiz-adv-x="333" 
 />
    <glyph glyph-name="space" unicode=" " horiz-adv-x="278" 
 />
    <glyph glyph-name="parenleft" unicode="(" horiz-adv-x="333" 
d="M290 698l26 -26q-71 -80 -99.5 -172.5t-28.5 -232.5q0 -121 29.5 -212.5t97.5 -169.5l-27 -25q-102 82 -155 180.5t-53 233.5q0 79 14.5 142.5t45 114t65 88t85.5 79.5z" />
    <glyph glyph-name="parenright" unicode=")" horiz-adv-x="333" 
d="M17 672l26 26q51 -42 85.5 -79.5t65 -88t45 -114t14.5 -142.5q0 -135 -53 -233.5t-155 -180.5l-27 25q68 78 97.5 169.5t29.5 212.5q0 140 -28.5 232.5t-99.5 172.5z" />
    <glyph glyph-name="hyphen" unicode="-" horiz-adv-x="333" 
d="M42 164v110h249v-110h-249z" />
    <glyph glyph-name="colon" unicode=":" horiz-adv-x="278" 
d="M57 64q0 34 24 58t58 24t58 -24t24 -58t-24 -58t-58 -24t-58 24t-24 58zM57 392q0 34 24 58t58 24t58 -24t24 -58t-24 -58t-58 -24t-58 24t-24 58z" />
    <glyph glyph-name="A" unicode="A" horiz-adv-x="667" 
d="M375 690q184 -493 278 -695q-80 5 -88 5q-15 0 -85 -5q-33 108 -69 205q-86 2 -128 2q-34 0 -104 -2q-38 -95 -68 -205q-40 5 -47 5q-2 0 -50 -5q157 356 285 695q33 -5 38 -5t38 5zM205 259h183q-59 165 -89 238q-49 -113 -94 -238z" />
    <glyph glyph-name="B" unicode="B" horiz-adv-x="611" 
d="M89 272v136q0 160 -8 277q55 -5 82 -5q29 0 90 2.5t90 2.5q94 0 148 -38t54 -117q0 -73 -51.5 -114t-111.5 -51v-2q26 -1 54.5 -11t58 -28.5t48.5 -52t19 -76.5q0 -100 -67 -150t-166 -50q-27 0 -74.5 2.5t-72.5 2.5q-46 0 -101 -5q8 117 8 277zM397 511q0 52 -25.5 84.5
t-81.5 32.5q-30 0 -49 -3q-4 -98 -4 -139q0 -18 0.5 -51.5t0.5 -50.5h45q46 0 80 33.5t34 93.5zM404 188q0 139 -123 139q-10 0 -24 -0.5t-19 -0.5q0 -12 -0.5 -43.5t-0.5 -53.5q0 -35 1 -98t1 -77q36 -2 55 -2q46 0 78 36.5t32 99.5z" />
    <glyph glyph-name="C" unicode="C" horiz-adv-x="667" 
d="M617 119l13 -8q-18 -45 -22 -85q-83 -44 -204 -44q-170 0 -269.5 94t-99.5 240q0 100 32 175.5t88 119.5t125.5 65.5t151.5 21.5q53 0 111.5 -14t92.5 -35q-18 -46 -23 -102h-14q-72 89 -172 89q-90 0 -159 -78.5t-69 -226.5q0 -143 70 -215t167 -72q48 0 98.5 20.5
t82.5 54.5z" />
    <glyph glyph-name="D" unicode="D" horiz-adv-x="778" 
d="M89 272v136q0 160 -8 277q55 -5 82 -5q17 0 74 2.5t107 2.5q90 0 157 -15.5t120 -52t80.5 -101t27.5 -156.5q0 -161 -100.5 -263t-245.5 -102q-56 0 -128 2.5t-92 2.5q-27 0 -82 -5q8 117 8 277zM237 428v-178q0 -176 1 -195q60 -3 88 -3q115 0 180 78.5t65 231.5
q0 122 -62.5 194t-166.5 72q-52 0 -104 -5q-1 -19 -1 -195z" />
    <glyph glyph-name="E" unicode="E" 
d="M80 272v136q0 160 -8 277q24 0 84.5 -2.5t93.5 -2.5q164 0 209 5q-4 -24 -4 -42q0 -15 4 -45q-182 12 -226 12q-5 -73 -5 -218q133 3 227 8q-5 -29 -5 -45q0 -6 5 -41q-114 9 -227 9q0 -21 -0.5 -63.5t-0.5 -64.5q0 -65 3 -125q118 0 229 13q-4 -28 -4 -45q0 -19 4 -43
q-10 0 -38 1.5t-62 2.5t-75 1q-157 0 -212 -5q8 117 8 277z" />
    <glyph glyph-name="F" unicode="F" 
d="M80 272v136q0 160 -8 277q24 0 84.5 -2.5t93.5 -2.5q164 0 209 5q-4 -24 -4 -42q0 -15 4 -45q-182 12 -226 12q-5 -73 -5 -218q133 3 227 8q-5 -29 -5 -45q0 -6 5 -41q-114 9 -227 9v-51q0 -160 8 -277q-55 5 -82 5t-82 -5q8 117 8 277z" />
    <glyph glyph-name="G" unicode="G" horiz-adv-x="778" 
d="M674 536h-14q-70 100 -197 100q-101 0 -176.5 -82.5t-75.5 -230.5q0 -123 65 -201t178 -78q28 0 63 5t46 13q3 16 3 70q0 39 -7 172q33 -5 74 -5q49 0 81 5q-8 -34 -8 -168q0 -88 3 -110q-153 -44 -267 -44q-174 0 -284.5 92t-110.5 243q0 184 115 282.5t299 98.5
q127 0 241 -60q-22 -68 -28 -102z" />
    <glyph glyph-name="I" unicode="I" horiz-adv-x="333" 
d="M93 272v136q0 160 -8 277q55 -5 82 -5t82 5q-8 -117 -8 -277v-136q0 -160 8 -277q-55 5 -82 5t-82 -5q8 117 8 277z" />
    <glyph glyph-name="L" unicode="L" 
d="M89 272v136q0 160 -8 277q55 -5 82 -5t82 5q-8 -117 -8 -277v-136q0 -98 2 -202q118 0 229 13q-4 -28 -4 -45q0 -19 4 -43q-10 0 -38 1.5t-62 2.5t-75 1q-157 0 -212 -5q8 117 8 277z" />
    <glyph glyph-name="M" unicode="M" horiz-adv-x="889" 
d="M171 449h-2q-19 -136 -40 -454q-27 5 -47 5t-47 -5q57 312 103 690q23 -5 41 -5t40 5q129 -281 231 -478q113 214 233 478q23 -5 43 -5q19 0 42 5q64 -566 86 -690q-45 5 -81 5t-83 -5q-8 149 -40 464h-2l-221 -464q-12 2 -19 2t-19 -2z" />
    <glyph glyph-name="N" unicode="N" horiz-adv-x="778" 
d="M98 486q0 54 -2.5 125.5t-2.5 73.5q25 -5 45 -5t45 5l434 -476q0 431 -7 476q25 -5 45 -5t45 5q-16 -291 -16 -690q-23 5 -41 5q-19 0 -39 -5q-201 238 -437 486q-2 -75 -2 -233q0 -179 6 -253q-27 5 -47 5q-21 0 -46 -5q5 28 12.5 191t7.5 300z" />
    <glyph glyph-name="O" unicode="O" horiz-adv-x="833" 
d="M35 340q0 151 107 254.5t277 103.5q167 0 273 -91.5t106 -265.5q0 -151 -108.5 -255t-273.5 -104q-109 0 -193 36.5t-136 118.5t-52 203zM634 362q0 128 -60 203.5t-158 75.5q-100 0 -158.5 -88.5t-58.5 -221.5q0 -150 58.5 -218.5t151.5 -68.5q97 0 161 81.5t64 236.5z
" />
    <glyph glyph-name="P" unicode="P" horiz-adv-x="556" 
d="M80 272v136q0 160 -8 277q55 -5 82 -5q23 0 72.5 2.5t73.5 2.5q125 0 174 -41q62 -52 62 -135q0 -110 -69 -162t-188 -52h-51q0 -186 8 -300q-55 5 -82 5t-82 -5q8 117 8 277zM378 493q0 71 -29.5 103t-76.5 32q-31 0 -42 -1q-2 -188 -2 -281q150 0 150 147z" />
    <glyph glyph-name="Q" unicode="Q" horiz-adv-x="833" 
d="M419 698q167 0 273 -91.5t106 -265.5q0 -118 -68 -209t-187 -132q209 -128 262 -154q-51 -7 -141 -54q-112 90 -261 190q-76 0 -141 21.5t-116.5 64t-81 112.5t-29.5 160q0 151 107 254.5t277 103.5zM634 362q0 128 -60 203.5t-158 75.5q-100 0 -158.5 -88.5
t-58.5 -221.5q0 -150 58.5 -218.5t151.5 -68.5q97 0 161 81.5t64 236.5z" />
    <glyph glyph-name="R" unicode="R" horiz-adv-x="611" 
d="M425 -5l-179 318h-9v-41q0 -160 8 -277q-55 5 -82 5t-82 -5q8 117 8 277v136q0 160 -8 277q55 -5 82 -5q14 0 61.5 2.5t85.5 2.5q74 0 110 -7.5t63 -26.5q65 -47 65 -132q0 -145 -155 -184q47 -83 213 -340q-75 5 -90 5q-16 0 -91 -5zM395 497q0 84 -33 107.5t-122 23.5
q-3 -136 -3 -272q16 -2 22 -2q66 0 101 36.5t35 106.5z" />
    <glyph glyph-name="S" unicode="S" 
d="M399 550h-15q-32 86 -121 86q-45 0 -74.5 -26.5t-29.5 -63.5q0 -34 22.5 -60.5t56.5 -42.5t73 -36.5t73 -42.5t56.5 -62.5t22.5 -93.5q0 -101 -73 -163.5t-192 -62.5q-104 0 -161 43q21 73 29 127h19q9 -47 44.5 -77.5t93.5 -30.5q56 0 86.5 29t30.5 73q0 35 -22 62
t-55 42.5t-72 36t-72 42.5t-55 62t-22 93q0 99 65.5 156.5t159.5 57.5q102 0 164 -49q-12 -30 -32 -99z" />
    <glyph glyph-name="T" unicode="T" horiz-adv-x="556" 
d="M207 272v250q0 74 -3 88q-72 0 -183 -13q5 25 5 44t-5 44q152 -5 260 -5q112 0 254 5q-5 -25 -5 -44t5 -44q-100 13 -178 13q-2 -14 -2 -88v-250q0 -160 8 -277q-55 5 -82 5t-82 -5q8 117 8 277z" />
    <glyph glyph-name="U" unicode="U" horiz-adv-x="778" 
d="M394 -18q-137 0 -220.5 64.5t-83.5 198.5q0 59 1 131t1 103q0 140 -4 206q45 -5 82 -5t82 5q-14 -140 -14 -350q0 -90 12.5 -147t39.5 -86.5t61 -40t87 -10.5q39 0 68 13t47.5 39.5t30 56.5t17 75t7 83t1.5 92q0 128 -8 275q28 -5 51 -5q22 0 50 5q-13 -128 -13 -375
q0 -171 -73.5 -249.5t-221.5 -78.5z" />
    <glyph glyph-name="V" unicode="V" horiz-adv-x="667" 
d="M377 183q109 265 189 502q23 -5 44 -5t44 5q-205 -489 -274 -690q-38 5 -44 5q-9 0 -44 -5q-46 127 -134 350.5l-137 339.5q52 -5 90 -5q40 0 88 5q16 -52 39.5 -121.5t42 -119.5l50.5 -136.5z" />
    <glyph glyph-name="X" unicode="X" horiz-adv-x="611" 
d="M240 313l-207 372q53 -5 91 -5q39 0 89 5l124 -244l146 244q45 -5 51 -5t51 5q-20 -26 -55.5 -77l-84 -122l-71.5 -104l109.5 -201.5t100.5 -185.5q-77 5 -88 5q-14 0 -87 -5q-79 160 -131 256q-81 -127 -152 -256q-42 5 -49 5q-3 0 -51 -5z" />
    <glyph glyph-name="Z" unicode="Z" horiz-adv-x="611" 
d="M12 -5v17q169 259 355 596l-1 2q-215 0 -313 -9q5 35 5 42t-5 42q59 0 143.5 -2.5t132.5 -2.5q59 0 246 5v-18q-164 -260 -351 -595v-2q255 0 350 8q0 -6 -2.5 -20t-2.5 -22t2.5 -21.5t2.5 -19.5q-207 5 -250 5q-122 0 -312 -5z" />
    <glyph glyph-name="a" unicode="a" 
d="M71 362l-13 60q84 70 187 70q85 0 134 -39.5t49 -123.5q0 -44 -1.5 -118.5t-1.5 -108.5q0 -44 12.5 -56.5t46.5 -12.5v-24q-51 -27 -92 -27q-69 0 -95 73q-54 -73 -130 -73q-71 0 -107 38.5t-36 92.5q0 62 37.5 95t110.5 51q83 20 102.5 31.5t19.5 39.5q0 37 -26 62
t-70 25q-34 0 -69.5 -16.5t-50.5 -38.5h-7zM295 150q0 33 0.5 65.5t0.5 39.5q-13 -7 -35 -15.5t-36.5 -15t-30 -18t-23 -31t-7.5 -48.5q0 -36 15 -56t42 -20q34 0 54 25.5t20 73.5z" />
    <glyph glyph-name="c" unicode="c" 
d="M441 341h-24q-17 100 -101 100q-58 0 -89 -54t-31 -152q0 -91 38 -139.5t111 -48.5q30 0 59.5 14t43.5 33l12 -10q-12 -25 -22 -59q-57 -43 -135 -43q-70 0 -122.5 22t-81.5 59.5t-42.5 81t-13.5 91.5q0 112 72.5 184t191.5 72q91 0 172 -47q-25 -41 -38 -104z" />
    <glyph glyph-name="d" unicode="d" horiz-adv-x="556" 
d="M495 406v-65q0 -165 8 -346q-28 5 -75 5q-45 0 -67 -5q2 6 5 39.5t3 42.5l-2 2q-42 -97 -143 -97q-96 0 -143.5 72.5t-47.5 187.5q0 107 56 178.5t137 71.5q43 0 79 -21t54 -53h2q0 153 -8 334q28 -5 75 -5t75 5q-8 -181 -8 -346zM181 227q0 -95 24 -139t62 -44
q43 0 68.5 49t25.5 152q0 89 -24 133.5t-65 44.5q-37 0 -64 -45.5t-27 -150.5z" />
    <glyph glyph-name="e" unicode="e" 
d="M181 282h154q-3 165 -74 165q-40 0 -59 -48t-21 -117zM468 237h-287q0 -85 34 -137.5t100 -52.5q69 0 123 45l12 -9l-22 -56q-59 -45 -152 -45q-105 0 -174 64.5t-69 188.5q0 125 63.5 191t168.5 66q97 0 150.5 -58.5t53.5 -163.5q0 -26 -1 -33z" />
    <glyph glyph-name="g" unicode="g" 
d="M377 -111q0 55 -35.5 74t-109.5 19q-51 0 -72 -10q-14 -7 -26.5 -31t-12.5 -56q0 -55 37.5 -85t93.5 -30t90.5 34.5t34.5 84.5zM484 439l-88 4l-3 -2q54 -39 54 -111q0 -74 -54 -120t-140 -46q-7 0 -21.5 0.5t-23.5 0.5q-12 0 -20.5 -11t-8.5 -25q0 -52 77 -53l74 -1
q83 -1 123 -32.5t40 -99.5q0 -57 -24 -100t-64 -67t-84.5 -35.5t-91.5 -11.5q-92 0 -145.5 37t-53.5 96q0 87 98 124v2q-57 25 -57 77q0 34 26 64.5t67 41.5v2q-61 15 -94 54q-34 40 -34 104q0 75 58 118t154 43q14 0 40 -2t34 -2q34 -2 56 -2q16 0 52 0.5t54 0.5
q-2 -16 -2 -24t2 -24zM244 451q-68 0 -68 -132q0 -60 19.5 -89t46.5 -29q33 0 49 30t16 97q0 123 -63 123z" />
    <glyph glyph-name="i" unicode="i" horiz-adv-x="278" 
d="M72 217v40q0 129 -8 222q45 -5 75 -5q33 0 75 5q-8 -93 -8 -222v-40q0 -129 8 -222q-42 5 -75 5q-30 0 -75 -5q8 93 8 222zM60 668q0 33 23 56t56 23t56 -23t23 -56t-23 -56t-56 -23t-56 23t-23 56z" />
    <glyph glyph-name="l" unicode="l" horiz-adv-x="278" 
d="M72 341v65q0 165 -8 346q28 -5 75 -5t75 5q-8 -181 -8 -346v-65q0 -165 8 -346q-28 5 -75 5t-75 -5q8 181 8 346z" />
    <glyph glyph-name="m" unicode="m" horiz-adv-x="833" 
d="M194 479l-4 -75h2q60 88 151 88t128 -95q62 95 155 95q156 0 156 -184q0 -36 -2 -90t-2 -78q0 -18 5 -145q-28 5 -75 5t-75 -5q11 88 11 287q0 122 -82 122q-30 0 -49 -20t-24.5 -43.5t-5.5 -51.5v-72q0 -129 8 -222q-43 5 -75 5q-30 0 -75 -5q8 93 8 222v61
q0 63 -16 94.5t-54 31.5q-87 0 -87 -147v-40q0 -129 8 -222q-42 5 -75 5q-30 0 -75 -5q8 93 8 222v40q0 129 -8 222q60 -5 71 -5q8 0 73 5z" />
    <glyph glyph-name="n" unicode="n" horiz-adv-x="556" 
d="M197 479l-4 -75h2q60 88 151 88q156 0 156 -184q0 -36 -2 -90t-2 -78q0 -18 5 -145q-28 5 -75 5t-75 -5q11 88 11 287q0 122 -82 122q-87 0 -87 -147v-40q0 -129 8 -222q-43 5 -75 5q-30 0 -75 -5q8 93 8 222v40q0 129 -8 222q60 -5 71 -5q8 0 73 5z" />
    <glyph glyph-name="o" unicode="o" horiz-adv-x="556" 
d="M33 225q0 127 71.5 197t173.5 70q115 0 180 -66t65 -179q0 -121 -68 -193t-177 -72q-47 0 -89 13.5t-78 41t-57 76t-21 112.5zM375 262q0 185 -95 185q-47 0 -73 -56t-26 -167q0 -197 98 -197q96 0 96 235z" />
    <glyph glyph-name="r" unicode="r" horiz-adv-x="389" 
d="M198 479l-3 -122l2 -2q51 134 151 134q3 0 8.5 -0.5t7.5 -0.5q-6 -30 -6 -72q0 -43 1 -66l-9 -8q-23 14 -51 14q-44 0 -70.5 -29t-26.5 -70v-40q0 -129 8 -222q-42 5 -75 5q-30 0 -75 -5q8 93 8 222v40q0 129 -8 222q57 -5 69 -5q11 0 69 5z" />
    <glyph glyph-name="s" unicode="s" horiz-adv-x="389" 
d="M44 121h25q31 -82 118 -82q33 0 53 17.5t20 39.5q0 25 -23.5 42t-57.5 30.5t-68 30.5t-57.5 50.5t-23.5 81.5q0 79 52.5 120t122.5 41q73 0 141 -47q-17 -37 -24 -88h-28q-7 31 -32 57.5t-67 26.5q-31 0 -51 -16t-20 -42t24.5 -43.5t59 -29.5t69 -28t59 -49t24.5 -82
q0 -81 -56.5 -125t-136.5 -44q-75 0 -138 43q12 48 15 96z" />
    <glyph glyph-name="t" unicode="t" horiz-adv-x="333" 
d="M228 472l88 2q-3 -15 -3 -27q0 -13 3 -25l-88 2q-7 -105 -7 -223q0 -103 10.5 -132.5t45.5 -29.5q29 0 46 10v-41q-42 -26 -109 -26q-62 0 -94.5 39.5t-32.5 115.5q0 38 3.5 140.5t3.5 145.5l-70 -1q3 12 3 25q0 12 -3 27l70 -3q0 55 -4 123q66 27 137 62l10 -7
q-9 -77 -9 -177z" />
    <glyph glyph-name="u" unicode="u" horiz-adv-x="556" 
d="M359 -5l4 75h-2q-60 -88 -151 -88q-156 0 -156 184q0 36 2 90t2 78q0 18 -5 145q28 -5 75 -5t75 5q-11 -88 -11 -287q0 -122 82 -122q87 0 87 147v40q0 129 -8 222q42 -5 75 -5q30 0 75 5q-8 -93 -8 -222v-40q0 -129 8 -222q-60 5 -71 5q-8 0 -73 -5z" />
    <glyph glyph-name="quotesingle" unicode="'" horiz-adv-x="278" 
d="M89 366v342h100v-342h-100z" />
    <glyph glyph-name="grave" unicode="`" horiz-adv-x="333" 
d="M248 559h-55q-87 52 -125 78t-47.5 38t-9.5 27q0 18 12 31.5t35 13.5t51.5 -28t138.5 -160z" />
    <glyph glyph-name="acute" unicode="&#xb4;" horiz-adv-x="333" 
d="M140 559h-55q110 132 138.5 160t51.5 28t35 -13.5t12 -31.5q0 -15 -9.5 -27t-47.5 -38t-125 -78z" />
    <glyph glyph-name="Agrave" unicode="&#xc0;" horiz-adv-x="667" 
d="M375 690q184 -493 278 -695q-80 5 -88 5q-15 0 -85 -5q-33 108 -69 205q-86 2 -128 2q-34 0 -104 -2q-38 -95 -68 -205q-40 5 -47 5q-2 0 -50 -5q157 356 285 695q33 -5 38 -5t38 5zM205 259h183q-59 165 -89 238q-49 -113 -94 -238zM415 725h-55q-87 52 -125 78
t-47.5 38t-9.5 27q0 18 12 31.5t35 13.5t51.5 -28t138.5 -160z" />
    <glyph glyph-name="Eacute" unicode="&#xc9;" 
d="M80 272v136q0 160 -8 277q24 0 84.5 -2.5t93.5 -2.5q164 0 209 5q-4 -24 -4 -42q0 -15 4 -45q-182 12 -226 12q-5 -73 -5 -218q133 3 227 8q-5 -29 -5 -45q0 -6 5 -41q-114 9 -227 9q0 -21 -0.5 -63.5t-0.5 -64.5q0 -65 3 -125q118 0 229 13q-4 -28 -4 -45q0 -19 4 -43
q-10 0 -38 1.5t-62 2.5t-75 1q-157 0 -212 -5q8 117 8 277zM249 725h-55q110 132 138.5 160t51.5 28t35 -13.5t12 -31.5q0 -15 -9.5 -27t-47.5 -38t-125 -78z" />
    <glyph glyph-name="Egrave" unicode="&#xc8;" 
d="M80 272v136q0 160 -8 277q24 0 84.5 -2.5t93.5 -2.5q164 0 209 5q-4 -24 -4 -42q0 -15 4 -45q-182 12 -226 12q-5 -73 -5 -218q133 3 227 8q-5 -29 -5 -45q0 -6 5 -41q-114 9 -227 9q0 -21 -0.5 -63.5t-0.5 -64.5q0 -65 3 -125q118 0 229 13q-4 -28 -4 -45q0 -19 4 -43
q-10 0 -38 1.5t-62 2.5t-75 1q-157 0 -212 -5q8 117 8 277zM357 725h-55q-87 52 -125 78t-47.5 38t-9.5 27q0 18 12 31.5t35 13.5t51.5 -28t138.5 -160z" />
    <glyph glyph-name="eacute" unicode="&#xe9;" 
d="M181 282h154q-3 165 -74 165q-40 0 -59 -48t-21 -117zM468 237h-287q0 -85 34 -137.5t100 -52.5q69 0 123 45l12 -9l-22 -56q-59 -45 -152 -45q-105 0 -174 64.5t-69 188.5q0 125 63.5 191t168.5 66q97 0 150.5 -58.5t53.5 -163.5q0 -26 -1 -33zM239 559h-55
q110 132 138.5 160t51.5 28t35 -13.5t12 -31.5q0 -15 -9.5 -27t-47.5 -38t-125 -78z" />
  </font>
</defs>
</svg>
